<?xml version="1.0" encoding="utf-8"?>
<!-- Generator: Adobe Illustrator 24.3.0, SVG Export Plug-In . SVG Version: 6.00 Build 0)  -->
<svg version="1.1" id="Layer_1" xmlns="http://www.w3.org/2000/svg" xmlns:xlink="http://www.w3.org/1999/xlink" x="0px" y="0px"
	 viewBox="0 0 512 512" style="enable-background:new 0 0 512 512;" xml:space="preserve">
<style type="text/css">
	.st0{fill:#D1D3D4;}
	.st1{fill:url(#SVGID_1_);}
	.st2{fill:url(#SVGID_2_);}
	.st3{fill:url(#SVGID_3_);}
	.st4{fill:url(#SVGID_4_);}
	.st5{fill:#FFFFFF;}
	.st6{fill:#010101;}
</style>
<g>
	<polygon class="st0" points="394.35,380.73 418.47,400.29 394.35,400.29 	"/>
	<polygon class="st0" points="90.98,400.75 116.53,400.75 116.53,381.27 	"/>
	<linearGradient id="SVGID_1_" gradientUnits="userSpaceOnUse" x1="165.1145" y1="17.4422" x2="363.8217" y2="361.6132">
		<stop  offset="0" style="stop-color:#036CB5"/>
		<stop  offset="0.634" style="stop-color:#0E456A"/>
	</linearGradient>
	<path class="st1" d="M98.98,250.98c0-44.93,0-179.72,0-179.72s2.9-17.39,16.43-25.12s265.72-3.87,276.35,0
		c10.63,3.87,20.29,15.46,20.29,25.12s3.41,139.99,0,186.49c-3.57,48.76-18.36,124.65-143.97,132.38S98.98,296.4,98.98,250.98z"/>
	<g>
		<linearGradient id="SVGID_2_" gradientUnits="userSpaceOnUse" x1="254.5506" y1="400.7536" x2="254.5506" y2="470.3238">
			<stop  offset="0.4742" style="stop-color:#036CB5"/>
			<stop  offset="0.8505" style="stop-color:#0E456A"/>
		</linearGradient>
		<rect x="90.29" y="400.75" class="st2" width="328.53" height="69.57"/>
		<linearGradient id="SVGID_3_" gradientUnits="userSpaceOnUse" x1="66.6146" y1="380.4623" x2="66.6146" y2="445.2012">
			<stop  offset="0.4742" style="stop-color:#036CB5"/>
			<stop  offset="0.8505" style="stop-color:#0E456A"/>
		</linearGradient>
		<polygon class="st3" points="15.89,445.2 53.57,416.21 15.89,380.46 117.34,380.46 90.29,400.75 90.29,445.2 		"/>
		<linearGradient id="SVGID_4_" gradientUnits="userSpaceOnUse" x1="445.3854" y1="380.4623" x2="445.3854" y2="448.0999">
			<stop  offset="0.4742" style="stop-color:#036CB5"/>
			<stop  offset="0.8505" style="stop-color:#0E456A"/>
		</linearGradient>
		<polygon class="st4" points="418.81,400.75 394.66,380.46 496.11,380.46 458.43,412.83 496.11,448.1 418.81,448.1 		"/>
	</g>
	<path class="st5" d="M234.26,191.08c0,0,32.85-14.49,39.62-14.49s13.53,2.9,20.29,0s8.7-14.49,5.8-23.19
		c-2.9-8.7,70.54-82.13,76.33-87.93c0-0.97,7.38,1.82,3.21,10.16c-4.17,8.35-26.09,36.52-26.09,36.52s27.13-32.35,29.92-33.05
		s5.22,1.74,3.83,6.96c-1.39,5.22-16.35,27.13-16.35,27.13s12.98-18.78,16.75-19.83c3.77-1.04,5.86,6.26,3.08,10.09
		s-22.26,25.74-29.57,30.96c-7.3,5.22-19.13,11.48-21.22,13.22c-0.7-0.35,31.31-14.61,42.09-26.44c0.35,0.35-0.35,14.61-25.74,28.87
		s-19.48,12.52-19.48,12.52s26.09-12.87,28.52-13.57c0.35,0-15.65,21.91-24,22.96c-8.35,1.04-11.83,3.13-13.57,5.22
		c0.35,0,11.48-3.13,13.57-2.43c2.09,0.7,0.35,4.52-2.09,6.61c-2.43,2.09-9.39,2.78-11.48,2.78c-2.09,0,3.13,2.09,8.7,1.74
		c0.7,0.35-2.78,6.61-5.22,6.96c-2.43,0.35-7.65,1.74-9.74,0c0.35,0,5.22,3.48,8.35,3.13c1.39,0.35-3.48,4.52-5.57,4.52
		s-3.13-1.04-6.96,0c-3.83,1.04,2.43,1.39,4.52,2.09c0,1.04-3.78,5.91-8.67,5.57s-6.28-2.09-6.28-2.09s-1.74,2.78,2.09,4.17
		c2.43,4.17-6.61,3.83-9.39,3.83s-9.39-2.09-11.83-4.52c0,0,4.87,4.77,8.7,6.56c0.35,0.75-9.04,4.92-13.57,2.14
		s-1.74,2.78-4.17,2.78c-2.43,0-11.48-1.93-11.48-1.93s-5.22,4.37,8.35,24.89c10.78-3.48,17.74-2.43,14.96,4.52
		c0.35,0-2.09,2.78-2.78,0s-2.09-3.83-5.22-3.13c0.35,0.35,7.3,3.83,4.52,6.26c-1.04,0.7-7.3-2.43-10.09-2.43
		c-2.78,0-1.74-1.39-6.26,0.35s-6.26,0.7-8.35,0.7c0.35-0.35,5.22-3.13,7.3-5.57c2.09-2.43-2.78-1.39-2.78-1.39
		s-4.52,2.09-6.96,2.78c-2.43,0.7-2.74,0-4.33-1.74s-6.11,0.35-5.76-2.09c0.35-2.43,2.09-5.22,0.35-5.57
		c-1.74-0.35-3.13-8.35-5.22-8.35c0.7,0.7,1.39,18.09,7.65,21.57c6.26,3.48,12.17,2.78,14.26,4.17s4.17,4.52,1.39,5.22
		s-3.13-2.78-4.87-3.13c-1.74-0.35-5.53-2.09-7.81-1.74c-2.28,0.35,4.68,3.31,4.68,4.96s-2.74,5.13-4.68,4.78
		c-1.93-0.35,3.98-4.14-2.28-6.42c0-0.54-4.17,0.5-3.83,1.89c0.35,1.39-0.54,4.57,2.78,4.55c-0.35,0.67-8.35,2.8-6.61-6.44
		c4.94-9.64,0.7-10.28-1.04-8.19c-1.74,2.09,0.35,4.52-2.09,4.87c-2.43,0.35-1.43,4.17-8.19,5.57c-6.76,1.39-20.68,5.57-27.98,3.48
		c-7.3-2.09-4.87-4.17-4.87-4.17s-7.3,2.09-10.78,0s-4.87-3.13-2.78-4.52c2.09-1.39-11.83,1.04-12.87-3.13
		c-1.04-4.17-8-5.22-10.78-8c-2.78-2.78-1.39-5.57-1.39-5.57s-6.26,0.35-11.48-6.96c0.35-2.78,4.87-2.78,9.74-3.48
		c4.87-0.7,26.44-0.7,29.22-1.39c2.78-0.7,16-6.71,19.13-10.14c0,0-12.17,2.14-15.65-3.78c0.7,0,5.91-0.7,8.35-1.74
		c2.43-1.04-8-0.35-12.17-2.09c-4.17-1.74-8-3.48-6.96-5.22c1.04-1.74,8,3.13,9.04,1.04c1.04-2.09-8-1.74-12.52-5.57
		c-4.52-3.83-7.3-6.61-3.83-6.26c3.48,0.35,14.61,5.91,13.91,2.43c-0.7-3.48-13.22-3.13-16.7-5.57c-3.48-2.43-5.22-5.91-4.17-7.65
		c1.04-1.74,8.7,3.83,10.44,3.48c1.74-0.35-2.43-4.52-6.96-6.26c-4.52-1.74-7.3-4.17-6.26-7.65c1.04-3.48,19.13,6.96,22.96,6.61
		c3.83-0.35-21.22-9.04-27.83-17.04s-5.57-7.65-4.52-10.78c1.04-3.13,14.96,12.63,25.74,15.01c0.7,0.64-26.09-18.49-30.96-28.58
		c-2.43-6.26,0-8,0-8s29.92,26.09,34.09,27.13s-29.64-25.05-35.17-32c-5.53-6.96-15.61-22.61-14.92-30.61
		c0.7-8,20.18,29.45,32.7,34.79c1.04,1.39-33.74-34.79-31.31-47.66s35.48,38.61,50.09,47.66c0.7,1.04-40.35-46.26-42.44-51.13
		c-2.09-4.87-1.39-14.61,1.74-14.61s43.48,48.35,65.4,61.57s47.19,32.51,35.48,43.83C236.45,177.63,234.26,191.08,234.26,191.08z"/>
	<path class="st6" d="M238.63,196.68c0,0,30.26-15.65,36.18-16.7c5.91-1.04,19.13,3.13,22.26,5.91s2.78,6.61,2.78,6.61
		s6.26,1.74,6.26,4.17c0,2.43-1.39,6.26-5.22,7.3c0-0.7-2.43-7.3-18.09-10.44c-3.83,2.43,6.61,4.17,8,6.96
		c1.39,2.78,3.13,7.65-0.7,3.48s-7.3-7.65-10.78-6.96c-3.48,0.7-9.74,21.91-11.13,22.26c-1.39,0.35-2.09-3.18-2.09-3.18
		s-2.43,3.58-4.52,3.21c-2.09-0.37,0.35-6.29,0.35-6.29s-3.79,3.38-6.42,3.08s-0.54-3.43,1.55-4.47c2.09-1.04-1.74-4.17-3.83-2.43
		c-2.09,1.74-1.04-1.74-2.78-1.74c-1.74,0-5.57,1.39-6.96,2.43c0-1.04,2.09-4.87,4.52-5.22c0.7-0.35-0.7-3.83-5.91-1.04
		c0.35-0.7,5.91-4.63,2.78-4.06c-3.13,0.58-4.17,4.06-6.26,2.32c-2.09-1.74-0.97-0.46-0.62-2.32
		C238.36,197.72,238.63,196.68,238.63,196.68z"/>
	<path class="st6" d="M162.1,232.86c0,0,0.35,4.52,5.57,3.83c5.22-0.7,24.35-3.83,28.52-3.83s-0.35-3.48-3.83-3.13
		C188.88,230.07,163.84,233.21,162.1,232.86z"/>
	<path class="st6" d="M170.1,240.86c0,0,28.18-5.57,32-5.57c1.04,0-12.87,6.61-16,8.35C182.97,245.38,176.9,246.24,170.1,240.86z"/>
	<path class="st6" d="M207.67,240.13c0,0-15.31,11.16-17.39,11.16c-2.09,0-7.28,0.07-8.35-3.13c-1.07-3.2,20.52-9.74,22.61-9.74
		C206.62,238.42,207.67,240.13,207.67,240.13z"/>
	<path class="st6" d="M202.16,254.77c0,0,8.99-9.04,12.12-9.91c3.13-0.87-0.7-2.96-3.48-2.26c-2.78,0.7-10.22,8-12.93,8.7
		c-2.72,0.7-6.24,2.09-3.09,3.48C197.93,256.16,202.16,254.77,202.16,254.77z"/>
	<path class="st6" d="M217.41,244.97c0,0,1.04,2.15,2.43,2.15s1.04,4.17,0,4.17c-1.04,0-7.3,2.98-9.04,4.1s0.7-3.89,2.43-5.21
		C214.97,248.86,217.41,244.97,217.41,244.97z"/>
	<path class="st6" d="M224.71,250.26c0,0-1.64,2.77-3.95,3.47s-5.79,2.47-7.53,4.02c-1.74,1.55,3.23-0.15,7.53,0
		c4.3,0.15,9.52-0.89,10.56-6.45c0.7,0-2.78,4.37-4.52,4.1S228.76,250.55,224.71,250.26z"/>
	<path class="st6" d="M212.88,199.58c0,0-1.73-7.77-5.21-10.55c-3.48-2.78-11.95-20.85-9.8-25.56c2.15-4.71,6.24-6.1,6.63-9.23
		c0.74,0.35-1.93,7.3-2.33,11.13c-0.4,3.83-1.44,6.38,2.33,11.54C208.26,182.07,216.35,193.79,212.88,199.58z"/>
	<path class="st5" d="M284.89,184.51c0,0,8,2.78,10.78,6.26c0.35,0.35,1.21,3.68-7.96,2.75c-0.34-0.09,4.92-0.32,2.61-2.05
		c-2.31-1.74-4.77-3.46-5.44-5.22C284.74,185.84,284.89,184.51,284.89,184.51z"/>
	<path class="st5" d="M173.14,328.3c0,1.78-0.07,2.51,1.59,3.37c1.26,0.59,2.18,1.06,2.18,2.58c0,4.69-10.04,4.49-13.14,4.49
		c-2.97,0-12.48,0.33-12.48-4.62c0-1.39,0.66-2.11,1.98-2.51c2.11-0.73,2.11-0.99,3.1-3.3c1.78-4.23,4.29-22.46,3.5-27.81
		c-0.2-1.12-0.73-1.19-1.72-1.45c-1.72-0.46-2.64-0.66-2.64-2.71c0-3.7,3.83-4.36,6.74-4.49h21.73c7.53-0.2,13.67,2.38,14.27,10.17
		c0.59,8.52-6.8,9.97-6.8,11.63c0,0.92,0.66,1.19,1.32,1.72c1.39,0.99,2.31,1.52,2.91,3.24c1.19,3.63,0.66,8.32,1.59,11.36
		c0.33,1.06,0.79,1.39,1.72,1.72c1.12,0.46,2.58,0.86,2.58,2.25c0,3.83-6.54,4.82-9.38,4.82c-13.94,0-10.44-11.16-12.81-18.43
		c-0.53-1.59-1.98-2.11-3.57-2.11c-1.65,0-1.85,0.2-2.05,1.85L173.14,328.3z M174.92,309.08c-0.13,1.45-0.26,2.31,1.59,2.31
		c3.96,0,4.62-5.61,4.62-8.59c0-2.51-0.66-4.36-3.5-4.36c-1.92,0-1.72,1.78-1.92,3.3L174.92,309.08z"/>
	<path class="st5" d="M231.33,329.35c-3.96,7.6-5.75,9.38-9.51,9.38c-5.28,0-6.01-4.03-9.05-15.13l-5.75-20.94
		c-1.12-4.03-5.09-1.98-5.09-5.75c0-1.65-0.59-5.55,14.73-5.55c9.64,0,10.3,2.11,10.3,4.62c0,3.5-4.49,1.98-3.96,5.15
		c0.92,5.61,3.3,16.71,4.69,16.71c1.65,0,7.46-15.13,7.46-17.44c0-2.38-2.97-2.25-2.97-5.09c0-3.9,7.33-3.96,10.04-3.96
		c7.33,0,8.78,1.92,8.78,3.7c0,4.56-4.03,2.38-5.55,5.48L231.33,329.35z"/>
	<path class="st5" d="M254.58,319.45c0.26-1.52,0.59-2.77,0.59-3.63c0-0.86-0.33-1.32-1.45-1.32c-0.99,0-2.58,0.07-2.58-2.31
		c0-2.84,3.04-4.1,5.22-5.02c3.1-1.32,8.12-2.77,11.49-2.77c2.05,0,2.97,1.06,2.97,3.04c0,2.84-0.99,8.45-1.12,9.38
		c-0.13,0.73-1.32,8.32-1.65,10.9c-0.13,1.26,0.73,1.26,1.78,1.26c1.26,0,2.18,0.07,2.18,1.65c0,5.02-10.44,8.06-14.2,8.06
		c-2.51,0-5.35-1.52-5.35-4.29c0-1.26,0.2-2.44,0.4-3.7L254.58,319.45z M254.19,298.05c0-5.28,9.45-7.99,13.67-7.99
		c2.38,0,5.55,0.92,5.48,3.76c-0.07,4.82-9.31,8.12-13.28,7.86C257.82,301.55,254.19,300.95,254.19,298.05z"/>
	<path class="st5" d="M280.28,338.21c-6.01,0-7.33-1.78-7.33-4.1c0-3.7,4.1-2.44,4.76-4.62c2.18-7.46,3.9-20.01,3.9-27.87
		c0-3.7-4.43-1.85-4.43-5.48s3.83-4.49,6.74-4.36c6.67,0.26,13.41,0.13,20.08,0c8.06-0.13,13.28,3.5,13.28,10.7
		c0,6.61-6.41,9.51-6.41,10.5c0,1.85,7.2,1.65,7.2,11.29c0,4.89-3.1,13.94-16.45,13.94H280.28z M293.88,330.02
		c0,1.32,0.99,1.19,2.11,1.19c4.69,0,5.22-4.95,5.22-8.52c0-3.5-0.99-5.09-4.62-5.09c-2.31,0-1.85,0.26-2.05,2.64L293.88,330.02z
		 M295.54,308.09c-0.13,1.52-0.46,2.71,1.39,2.71c4.23,0,4.82-5.22,4.82-8.39c0-2.64-0.73-4.1-3.5-4.1c-2.05,0-1.72,0.33-1.98,2.38
		L295.54,308.09z"/>
	<path class="st5" d="M319.84,325.13c0-3.24,1.59-6.14,5.15-6.14c3.37,0,4.36,3.1,5.35,5.68c1.19,2.97,3.17,6.27,6.74,6.27
		c2.25,0,4.43-1.26,4.43-3.76c0-5.81-15.72-8.26-15.72-20.87c0-9.91,8.85-15.32,17.97-15.32c3.24,0,5.81,1.12,6.67,1.12
		c0.86,0,2.05-1.12,3.9-1.12c3.9,0,7.13,6.01,7.13,9.45c0,2.91-2.11,5.61-5.15,5.61c-4.82,0-6.21-6.87-10.63-6.87
		c-1.72,0-3.1,0.92-3.1,2.77c0,2.44,2.18,3.76,4.1,4.76c6.8,3.7,13.28,6.94,13.28,15.72c0,11.63-11.89,16.78-21.93,16.78
		C329.29,339.2,319.84,335.1,319.84,325.13z"/>
	<g>
		<path class="st5" d="M118.47,435.67c-0.5,5.06-1.19,9.92-6.48,9.92c-3.1,0-5.81-1.46-5.81-5.96c0-3.26,0.79-6.86,0.77-9.75
			c-0.02-1.91-1.27-0.62-1.27-2.3c0-0.22-0.44-2.3,4.46-2.3c3.04,0,3.11,1.15,3.11,1.94c0,1.97-1.5,0.42-1.69,3.71
			c-0.56,6.52-0.48,4.78-0.63,7.48c-0.12,2.05,0.42,3.2,1.79,3.2c1.25,0,2.1-0.84,2.52-2.56c0.62-2.42,0.88-6.6,0.88-9.19
			c0-2.16-1.52-0.79-1.52-2.81c0-1.07,0.52-1.77,3.04-1.77c3.23,0,3.1,1.29,3.1,1.71c0,2.05-1.44,0.65-1.67,2.92L118.47,435.67z"/>
		<path class="st5" d="M127.68,436.29c0-0.51-0.17-0.9-0.54-0.9c-1.4,0-1.65,4.27-1.77,5.99c-0.19,3.09-0.62,3.82-3.1,4.02
			c-0.69,0.06-1.4-0.22-1.4-1.46c0-1.41,0.88-5.62,0.83-8.07c0-0.56-0.13-0.9-0.54-0.9h-0.19c-0.38,0-0.54-0.34-0.54-0.9
			c0-0.79,0.56-1.35,0.98-1.69c0.81-0.7,2.58-1.55,3.5-1.55c1.17,0,0.65,2.47,1.25,2.47c0.48,0,2.06-2.5,3.73-2.5
			c1.12,0,2.19,0.96,2.19,2.73c0,1.99-0.67,5.37-0.67,7.08c0,1.12,0.92,0.42,0.92,1.52c0,2.05-2.9,3.26-4,3.26
			c-0.85,0-1.38-0.62-1.38-1.88c0-1.43,0.35-3.26,0.5-4.72L127.68,436.29z"/>
		<path class="st5" d="M138.26,440.06c0,0.34,0.02,0.98,0.33,0.98c0.19,0,0.38-0.08,0.58-0.08c0.33,0,0.42,0.48,0.42,0.87
			c0,2.33-3.13,3.57-4.38,3.57c-1.04,0-1.67-0.7-1.56-2.73c0.27-4.55,0.87-9.72,1.12-13.01c0.04-0.45-0.04-0.67-0.37-0.67
			c-0.15,0-0.31,0.06-0.46,0.06c-0.38,0-0.6-0.25-0.6-0.82c0-1.41,0.88-1.85,1.65-2.22c0.94-0.45,2.21-0.9,3.19-0.9
			c0.67,0,1.1,0.25,1.1,1.35L138.26,440.06z"/>
		<path class="st5" d="M150.56,434.02c0,3.4-2.6,6.04-4.77,6.04c-0.27,0-0.75,0-0.75,0.59c0,0.82,0.69,1.27,1.17,1.27
			c1.38,0,2.44-1.6,3.06-1.6c0.4,0,0.77,0.62,0.77,1.18c0,1.49-1.29,2.42-2.08,2.95c-1.08,0.7-2.11,1.12-3.33,1.12
			c-2.35,0-4.38-1.49-4.29-5.25c0.17-5.84,3.9-9.64,7.4-9.64C149.28,430.67,150.56,431.54,150.56,434.02z M145.01,436.97
			c0,0.34,0.08,0.79,0.35,0.79c0.54,0,1.48-2.08,1.42-3.43c-0.02-0.37-0.13-0.87-0.44-0.87
			C145.55,433.45,145.01,436.07,145.01,436.97z"/>
		<path class="st5" d="M162.16,431.88c-0.08,1.69-0.42,4.22-0.58,7.25c-0.02,0.45-0.1,1.35,0.02,1.8c0.08,0.34,0.21,0.31,0.42,0.34
			c0.29,0.06,0.48,0.25,0.48,0.7c0,1.83-2.81,3.46-3.86,3.46c-1.71,0-0.88-2.39-1.5-2.39c-0.5,0-1.44,2.53-3.42,2.53
			c-1.77,0-2.5-2.28-2.42-4.55c0.15-5.06,2.31-9.78,5.27-10.17c1.35-0.2,1.88,1.15,2.44,1.15c0.21,0,0.56-0.31,0.73-0.45
			c0.54-0.39,1.04-0.73,1.63-0.73C161.91,430.81,162.2,431.09,162.16,431.88z M158.26,434.86c0-0.37-0.08-0.93-0.38-0.9
			c-1.02,0.11-2.31,4.3-2.29,6.1c0,0.42,0.06,1.15,0.44,1.1C157.05,441.04,158.3,436.27,158.26,434.86z"/>
		<path class="st5" d="M170.74,435.08c-0.77,0-0.77-1.63-1.5-1.63c-0.33,0-0.6,0.34-0.6,0.82c0,1.83,2.75,3.18,2.75,6.55
			c0,3.48-2.81,4.75-4.75,4.75c-1.23,0-3.5-0.51-3.5-2.87c0-0.84,0.37-1.99,1.02-1.99c0.81,0,0.67,1.88,1.63,1.88
			c0.38,0,0.83-0.31,0.83-0.93c0-1.49-2.4-2.95-2.4-6.1c0-3.37,2.63-4.89,4.61-4.89c1,0,2.92,0.48,2.92,2.36
			C171.76,433.88,171.41,435.08,170.74,435.08z"/>
		<path class="st5" d="M178.14,431.88c-0.06,0.42-0.21,1.29,0.06,1.29c0.35,0,1.88-2.5,3.63-2.5c1.31,0,2.19,0.96,2.19,2.95
			c0,2.11-0.63,5.17-0.65,6.77c-0.02,1.46,1.04,0.2,0.98,1.57c-0.1,2-3,3.54-4.11,3.43c-0.98-0.08-1.4-0.7-1.4-2.14
			c0-1.83,0.81-5.4,0.81-6.83c0-0.56-0.13-1.18-0.56-1.18c-1.44,0-1.81,5.65-1.9,6.74c-0.06,0.67-0.1,1.66-0.44,2.16
			c-0.48,0.73-1.71,1.29-2.38,1.29c-0.79,0-1.67-0.31-1.67-1.69c0-0.73,0.27-2.19,0.35-2.98c0.21-2.16,1.13-8.29,1.13-10.96
			c0-0.59-0.06-0.93-0.52-0.96c-0.44-0.03-0.87,0.03-0.87-0.87c0-1.26,1.1-1.83,1.77-2.14c0.9-0.42,1.9-0.76,2.84-0.76
			c0.73,0,1.29,0.17,1.29,1.35c0,0.95-0.25,2.7-0.35,3.68L178.14,431.88z"/>
		<path class="st5" d="M186.35,437.22c0.08-0.65,0.17-1.18,0.17-1.55s-0.1-0.56-0.42-0.56c-0.29,0-0.75,0.03-0.75-0.98
			c0-1.21,0.88-1.74,1.52-2.14c0.9-0.56,2.36-1.18,3.35-1.18c0.6,0,0.87,0.45,0.87,1.29c0,1.21-0.29,3.6-0.33,3.99
			c-0.04,0.31-0.38,3.54-0.48,4.64c-0.04,0.53,0.21,0.53,0.52,0.53c0.37,0,0.63,0.03,0.63,0.7c0,2.14-3.04,3.43-4.13,3.43
			c-0.73,0-1.56-0.65-1.56-1.83c0-0.53,0.06-1.04,0.12-1.57L186.35,437.22z M186.24,428.12c0-2.25,2.75-3.4,3.98-3.4
			c0.69,0,1.61,0.39,1.6,1.6c-0.02,2.05-2.71,3.46-3.86,3.34C187.3,429.6,186.24,429.35,186.24,428.12z"/>
		<path class="st5" d="M199.58,436.29c0-0.51-0.17-0.9-0.54-0.9c-1.4,0-1.65,4.27-1.77,5.99c-0.19,3.09-0.62,3.82-3.1,4.02
			c-0.69,0.06-1.4-0.22-1.4-1.46c0-1.41,0.88-5.62,0.83-8.07c0-0.56-0.13-0.9-0.54-0.9h-0.19c-0.38,0-0.54-0.34-0.54-0.9
			c0-0.79,0.56-1.35,0.98-1.69c0.81-0.7,2.58-1.55,3.5-1.55c1.17,0,0.65,2.47,1.25,2.47c0.48,0,2.06-2.5,3.73-2.5
			c1.12,0,2.19,0.96,2.19,2.73c0,1.99-0.67,5.37-0.67,7.08c0,1.12,0.92,0.42,0.92,1.52c0,2.05-2.9,3.26-4,3.26
			c-0.85,0-1.38-0.62-1.38-1.88c0-1.43,0.35-3.26,0.5-4.72L199.58,436.29z"/>
		<path class="st5" d="M212.83,442.05c1.31,0,2.42,0.98,2.42,3.06c0,3.93-3.48,5.11-5.61,5.11c-1.36,0-4.5-0.42-4.5-3.18
			c0-1.04,0.54-1.21,0.54-1.6c0-0.37-0.71-0.82-0.71-2.22c0-1.26,0.65-2.14,1.4-2.59c0.19-0.11,0.42-0.17,0.42-0.53
			c0-0.28-0.1-0.34-0.23-0.51c-0.69-0.87-1.02-1.66-1.02-3.04c0-4.02,3.08-5.84,5.4-5.84c0.33,0,0.65,0.06,0.98,0.11
			c0.33,0.06,0.65,0.11,0.98,0.11c1.04,0,1.06-1.83,1.79-1.83c0.6,0,1.29,1.15,1.29,2c0,0.84-0.4,1.29-0.4,1.57
			c0,0.23,0.6,0.93,0.52,2.42c-0.25,4.52-3.06,5.76-5.46,5.76c-0.94,0-1.48-0.25-1.75-0.25c-0.25,0-0.44,0.28-0.44,0.65
			c0,1.01,1.25,0.9,1.67,0.9L212.83,442.05z M211.33,447.03c0-0.37-0.21-0.51-0.42-0.45c-1.5,0.31-3.04-0.28-3.42-0.25
			c-0.15,0.03-0.15,0.37-0.15,0.51c0,1.21,1.48,1.38,2.06,1.38C209.85,448.21,211.33,448.04,211.33,447.03z M211.79,434.13
			c0.06-0.62-0.1-1.1-0.6-1.1c-1.11,0-1.23,3.2-1.29,4.36c-0.04,0.65,0.12,1.04,0.62,1.04C211.58,438.43,211.7,435.31,211.79,434.13
			z"/>
		<path class="st5" d="M225.62,450.65c-1.71,0-3.44-1.38-3.44-4.13c0-1.71,0.83-2.81,1.96-2.81c0.92,0,1.63,0.76,1.63,2.16
			c0,0.48-0.08,0.95-0.08,1.43c0,0.31,0.08,0.56,0.31,0.56c0.62,0,0.92-1.35,0.9-2.05c-0.04-2.08-1.85-9.41-2.58-9.41
			c-0.29,0-0.69,0.96-1.12,0.96c-0.5,0-0.92-0.93-0.88-1.6c0.12-1.8,3.35-4.95,4.46-4.95c1.08,0,1.44,1.35,1.81,2.59
			c0.52,1.8,1.42,6.74,1.9,6.91c0.52,0.17,0.75-2.73,0.75-3.29c0-1.97-0.88-2.47-0.88-3.91c0-1.32,0.81-2.14,1.65-2.14
			c1.52,0,1.73,1.97,1.73,3.74C233.83,440.79,230.58,450.65,225.62,450.65z"/>
		<path class="st5" d="M234.45,440c0-5.37,2.88-9.33,6.54-9.33c2.4,0,4.38,1.88,4.38,5.56c0,5.37-2.88,9.33-6.54,9.33
			C236.43,445.57,234.45,443.68,234.45,440z M239.22,436.32c-0.21,1.52-0.38,3.43-0.38,4.97c0,0.65,0.12,1.29,0.62,1.29
			c0.81,0,0.96-1.69,1.08-2.53c0.19-1.43,0.46-3.6,0.46-5.03c0-0.65-0.1-1.38-0.63-1.38C239.54,433.65,239.35,435.45,239.22,436.32z
			"/>
		<path class="st5" d="M257.35,438.85c-0.06,0.42-0.12,0.87-0.12,1.29c0,0.62,0.21,0.84,0.6,0.84c0.44,0.03,0.67,0,0.67,0.76
			c0,2.16-3.21,3.65-4.38,3.65c-1.23,0-0.65-2.5-1.33-2.5c-0.42,0-2.06,2.61-4.06,2.5c-1.08-0.06-1.67-1.07-1.71-2.89
			c-0.04-1.57,0.4-3.88,0.56-5.82c0.06-0.73,0.19-1.38-0.44-1.49c-0.38-0.06-0.81-0.14-0.81-0.87c0-1.12,1.08-1.94,1.65-2.33
			c0.94-0.65,2.06-1.15,3.1-1.15c0.73,0,0.98,0.56,0.98,1.6c0,1.1-0.38,3.77-0.56,5.23c-0.04,0.37-0.52,3.15,0.31,3.15
			c0.62,0,1.06-1.12,1.27-1.8c0.79-2.64,0.42-6.18,1.29-7.22c0.54-0.7,1.9-0.98,2.62-0.98c0.6,0,1.11,0.25,1.11,1.21
			c0,0.37-0.08,1.04-0.1,1.41L257.35,438.85z"/>
		<path class="st5" d="M264.81,441.46c0.12,2.73-0.69,3.79-3.33,3.96c-0.71,0.06-1.48-0.22-1.48-1.49c0-1.69,0.77-5.2,0.81-7.81
			c0.02-0.76-0.04-0.98-0.56-0.98c-0.6,0-0.9-0.22-0.9-1.24c0-1.52,1.56-1.97,2.29-2.5c0.52-0.39,1.15-0.73,1.77-0.73
			c1.17,0,0.65,2.67,1.27,2.67c0.56,0,0.5-2.7,2.29-2.7c1.25,0,2.1,1.57,2.1,3.34c0,1.71-0.58,3.37-1.88,3.37
			c-0.69,0-0.96-0.39-1.29-1.21c-0.06-0.17-0.23-0.67-0.38-0.67c-0.27,0-0.38,1.18-0.4,1.43L264.81,441.46z"/>
		<path class="st5" d="M282.5,435.65c-0.02,0.79,0.02,0.93-0.52,0.93c-0.58,0.03-0.6,0.25-0.69,1.07l-0.75,8.65
			c0,1.12,0.12,2.08-0.6,2.78c-0.64,0.65-2.15,1.15-2.9,1.15c-0.73,0-1.77-0.39-1.77-1.69c0-0.48,0.13-0.76,0.35-1.04
			c0.48-0.65,0.4-0.9,0.56-1.88c0.35-2.16,0.9-6.21,0.9-8.37c0-0.84-0.48-0.7-0.9-0.7c-0.63,0-0.77-0.06-0.77-0.53
			c0-0.17,0.02-0.51,0.04-0.84l0.06-0.93c0.06-0.51,0-0.84,0.42-0.81c0.46,0,0.98,0.14,0.98-0.34c0-0.62-0.87-1.1-0.87-3.32
			c0-3.12,2.19-4.72,4.08-4.72c1.21,0,2.65,0.93,2.65,2.98c0,1.32-0.6,2.44-1.54,2.44c-0.73,0-1.13-0.45-1.65-1.1
			c-0.19-0.22-0.46-0.65-0.73-0.65c-0.31,0-0.5,0.39-0.5,0.79c0,0.7,0.42,1.21,0.87,1.38c0.85,0.34,1.83,0.76,2.17,2.08
			c0.13,0.53,0.13,0.45,0.56,0.45c0.63,0,0.67-0.06,0.62,0.95L282.5,435.65z"/>
		<path class="st5" d="M294.58,438.85c-0.06,0.42-0.12,0.87-0.12,1.29c0,0.62,0.21,0.84,0.6,0.84c0.44,0.03,0.67,0,0.67,0.76
			c0,2.16-3.21,3.65-4.38,3.65c-1.23,0-0.65-2.5-1.33-2.5c-0.42,0-2.06,2.61-4.06,2.5c-1.08-0.06-1.67-1.07-1.71-2.89
			c-0.04-1.57,0.4-3.88,0.56-5.82c0.06-0.73,0.19-1.38-0.44-1.49c-0.38-0.06-0.81-0.14-0.81-0.87c0-1.12,1.08-1.94,1.65-2.33
			c0.94-0.65,2.06-1.15,3.1-1.15c0.73,0,0.98,0.56,0.98,1.6c0,1.1-0.38,3.77-0.56,5.23c-0.04,0.37-0.52,3.15,0.31,3.15
			c0.62,0,1.06-1.12,1.27-1.8c0.79-2.64,0.42-6.18,1.29-7.22c0.54-0.7,1.9-0.98,2.61-0.98c0.6,0,1.12,0.25,1.12,1.21
			c0,0.37-0.08,1.04-0.1,1.41L294.58,438.85z"/>
		<path class="st5" d="M301.58,440.06c0,0.34,0.02,0.98,0.33,0.98c0.19,0,0.38-0.08,0.58-0.08c0.33,0,0.42,0.48,0.42,0.87
			c0,2.33-3.13,3.57-4.38,3.57c-1.04,0-1.67-0.7-1.56-2.73c0.27-4.55,0.87-9.72,1.12-13.01c0.04-0.45-0.04-0.67-0.37-0.67
			c-0.15,0-0.31,0.06-0.46,0.06c-0.38,0-0.6-0.25-0.6-0.82c0-1.41,0.88-1.85,1.65-2.22c0.94-0.45,2.21-0.9,3.19-0.9
			c0.67,0,1.1,0.25,1.1,1.35L301.58,440.06z"/>
		<path class="st5" d="M308.81,440.06c0,0.34,0.02,0.98,0.33,0.98c0.19,0,0.39-0.08,0.58-0.08c0.33,0,0.42,0.48,0.42,0.87
			c0,2.33-3.13,3.57-4.38,3.57c-1.04,0-1.67-0.7-1.56-2.73c0.27-4.55,0.87-9.72,1.11-13.01c0.04-0.45-0.04-0.67-0.37-0.67
			c-0.15,0-0.31,0.06-0.46,0.06c-0.38,0-0.6-0.25-0.6-0.82c0-1.41,0.88-1.85,1.65-2.22c0.94-0.45,2.21-0.9,3.19-0.9
			c0.67,0,1.1,0.25,1.1,1.35L308.81,440.06z"/>
		<path class="st5" d="M318.12,437.36c0-0.48,0-1.21-0.13-1.63c-0.1-0.31-0.35-0.34-0.56-0.37c-0.46-0.03-0.79-0.11-0.79-1.01
			c0-1.21,1.06-1.69,1.67-2.08c0.65-0.42,2.12-1.46,2.77-1.46c0.62,0,0.81,0.67,0.83,1.21c0,0.34,0.06,0.73,0.37,0.73
			c0.48,0,1.36-1.97,3.35-1.97c1.92,0,2.6,2.95,2.6,5.31c0,4.05-1.83,9.47-5.02,9.47c-0.25,0-0.46-0.08-0.67-0.2
			c-0.19-0.08-0.35-0.17-0.5-0.17c-0.54,0-0.29,1.97-0.17,2.33c0.19,0.62,1,0.53,1,1.41c0,1.43-1.4,1.57-2.1,1.57
			c-1.04,0-4.15-0.23-4.15-2.39c0-0.62,0.19-0.84,0.5-1.21c0.42-0.51,0.44-0.84,0.52-1.63L318.12,437.36z M321.81,441.72
			c0,0.51,0.06,0.87,0.46,0.87c1.13,0,1.69-4.86,1.69-6.1c0-0.59-0.08-1.43-0.62-1.43C322.21,435.06,321.81,440.51,321.81,441.72z"
			/>
		<path class="st5" d="M329.04,440c0-5.37,2.88-9.33,6.54-9.33c2.4,0,4.38,1.88,4.38,5.56c0,5.37-2.88,9.33-6.54,9.33
			C331.02,445.57,329.04,443.68,329.04,440z M333.81,436.32c-0.21,1.52-0.38,3.43-0.38,4.97c0,0.65,0.12,1.29,0.62,1.29
			c0.81,0,0.96-1.69,1.08-2.53c0.19-1.43,0.46-3.6,0.46-5.03c0-0.65-0.1-1.38-0.64-1.38C334.14,433.65,333.95,435.45,333.81,436.32z
			"/>
		<path class="st5" d="M345.87,438.96c-0.19,1.24,0.06,1.99,0.54,1.99c0.46,0,0.81-0.53,1.1-0.53c0.4,0,0.52,0.53,0.52,1.01
			c0,2.19-3.65,3.99-4.77,3.99c-1.15,0-1.92-0.81-1.92-2.61c0-0.9,0.1-1.8,0.19-2.67l0.58-4.95c0.13-1.1,0.08-1.24-0.69-1.24
			c-0.46,0-0.71-0.2-0.71-0.95c0-1.21,0.4-1.88,1.21-2c0.62-0.11,0.67-0.39,0.94-1.69c0.17-0.84,0.39-1.66,0.9-2.02
			c0.67-0.48,1.65-0.62,2.4-0.62c0.48,0,0.73,0.31,0.73,1.04c-0.04,0.56-0.17,2.16-0.17,2.61c0,0.84,0.63,0.56,1.21,0.56
			c0.25,0,0.48,0.08,0.48,0.51c0,0.39-0.06,0.84-0.1,1.21c-0.06,0.62-0.06,1.21-0.58,1.21c-1.33,0-1.33-0.08-1.61,2.36
			L345.87,438.96z"/>
		<path class="st5" d="M359.06,434.02c0,3.4-2.6,6.04-4.77,6.04c-0.27,0-0.75,0-0.75,0.59c0,0.82,0.69,1.27,1.17,1.27
			c1.38,0,2.44-1.6,3.06-1.6c0.4,0,0.77,0.62,0.77,1.18c0,1.49-1.29,2.42-2.08,2.95c-1.08,0.7-2.11,1.12-3.33,1.12
			c-2.35,0-4.38-1.49-4.29-5.25c0.17-5.84,3.9-9.64,7.4-9.64C357.77,430.67,359.06,431.54,359.06,434.02z M353.5,436.97
			c0,0.34,0.08,0.79,0.35,0.79c0.54,0,1.48-2.08,1.42-3.43c-0.02-0.37-0.13-0.87-0.44-0.87C354.04,433.45,353.5,436.07,353.5,436.97
			z"/>
		<path class="st5" d="M367.12,436.29c0-0.51-0.17-0.9-0.54-0.9c-1.4,0-1.65,4.27-1.77,5.99c-0.19,3.09-0.62,3.82-3.1,4.02
			c-0.69,0.06-1.4-0.22-1.4-1.46c0-1.41,0.89-5.62,0.83-8.07c0-0.56-0.13-0.9-0.54-0.9h-0.19c-0.38,0-0.54-0.34-0.54-0.9
			c0-0.79,0.56-1.35,0.98-1.69c0.81-0.7,2.58-1.55,3.5-1.55c1.17,0,0.65,2.47,1.25,2.47c0.48,0,2.06-2.5,3.73-2.5
			c1.12,0,2.19,0.96,2.19,2.73c0,1.99-0.67,5.37-0.67,7.08c0,1.12,0.92,0.42,0.92,1.52c0,2.05-2.9,3.26-4,3.26
			c-0.85,0-1.38-0.62-1.38-1.88c0-1.43,0.35-3.26,0.5-4.72L367.12,436.29z"/>
		<path class="st5" d="M377.71,438.96c-0.19,1.24,0.06,1.99,0.54,1.99c0.46,0,0.81-0.53,1.1-0.53c0.4,0,0.52,0.53,0.52,1.01
			c0,2.19-3.65,3.99-4.77,3.99c-1.15,0-1.92-0.81-1.92-2.61c0-0.9,0.1-1.8,0.19-2.67l0.58-4.95c0.13-1.1,0.08-1.24-0.69-1.24
			c-0.46,0-0.71-0.2-0.71-0.95c0-1.21,0.4-1.88,1.21-2c0.62-0.11,0.67-0.39,0.94-1.69c0.17-0.84,0.39-1.66,0.9-2.02
			c0.67-0.48,1.65-0.62,2.4-0.62c0.48,0,0.73,0.31,0.73,1.04c-0.04,0.56-0.17,2.16-0.17,2.61c0,0.84,0.63,0.56,1.21,0.56
			c0.25,0,0.48,0.08,0.48,0.51c0,0.39-0.06,0.84-0.1,1.21c-0.06,0.62-0.06,1.21-0.58,1.21c-1.33,0-1.33-0.08-1.62,2.36
			L377.71,438.96z"/>
		<path class="st5" d="M381.98,437.22c0.08-0.65,0.17-1.18,0.17-1.55s-0.1-0.56-0.42-0.56c-0.29,0-0.75,0.03-0.75-0.98
			c0-1.21,0.89-1.74,1.52-2.14c0.9-0.56,2.36-1.18,3.35-1.18c0.6,0,0.87,0.45,0.87,1.29c0,1.21-0.29,3.6-0.33,3.99
			c-0.04,0.31-0.39,3.54-0.48,4.64c-0.04,0.53,0.21,0.53,0.52,0.53c0.37,0,0.64,0.03,0.64,0.7c0,2.14-3.04,3.43-4.13,3.43
			c-0.73,0-1.56-0.65-1.56-1.83c0-0.53,0.06-1.04,0.12-1.57L381.98,437.22z M381.87,428.12c0-2.25,2.75-3.4,3.98-3.4
			c0.69,0,1.62,0.39,1.6,1.6c-0.02,2.05-2.71,3.46-3.86,3.34C382.93,429.6,381.87,429.35,381.87,428.12z"/>
		<path class="st5" d="M398.75,431.88c-0.08,1.69-0.42,4.22-0.58,7.25c-0.02,0.45-0.1,1.35,0.02,1.8c0.08,0.34,0.21,0.31,0.42,0.34
			c0.29,0.06,0.48,0.25,0.48,0.7c0,1.83-2.81,3.46-3.86,3.46c-1.71,0-0.88-2.39-1.5-2.39c-0.5,0-1.44,2.53-3.42,2.53
			c-1.77,0-2.5-2.28-2.42-4.55c0.15-5.06,2.31-9.78,5.27-10.17c1.35-0.2,1.88,1.15,2.44,1.15c0.21,0,0.56-0.31,0.73-0.45
			c0.54-0.39,1.04-0.73,1.63-0.73C398.5,430.81,398.79,431.09,398.75,431.88z M394.85,434.86c0-0.37-0.08-0.93-0.38-0.9
			c-1.02,0.11-2.31,4.3-2.29,6.1c0,0.42,0.06,1.15,0.44,1.1C393.64,441.04,394.89,436.27,394.85,434.86z"/>
		<path class="st5" d="M405.06,440.06c0,0.34,0.02,0.98,0.33,0.98c0.19,0,0.39-0.08,0.58-0.08c0.33,0,0.42,0.48,0.42,0.87
			c0,2.33-3.13,3.57-4.38,3.57c-1.04,0-1.67-0.7-1.56-2.73c0.27-4.55,0.87-9.72,1.11-13.01c0.04-0.45-0.04-0.67-0.37-0.67
			c-0.15,0-0.31,0.06-0.46,0.06c-0.38,0-0.6-0.25-0.6-0.82c0-1.41,0.88-1.85,1.65-2.22c0.94-0.45,2.21-0.9,3.19-0.9
			c0.67,0,1.1,0.25,1.1,1.35L405.06,440.06z"/>
	</g>
</g>
</svg>
